<svg width="76" height="119" viewBox="0 0 76 119" fill="none" xmlns="http://www.w3.org/2000/svg">
<path d="M37.8932 0L75.1943 62.7605L37.8932 42.9258V0Z" fill="#FFE587"/>
<path d="M37.8931 0V77.2039L0 62.1685L37.8931 0Z" fill="url(#paint0_linear_80_299)"/>
<path d="M37.8932 77.2665V42.9258L75.1943 62.7605L37.8932 77.2665Z" fill="#FFB47E"/>
<path d="M37.8932 77.2665L75.1943 62.7605L37.5972 118.12L37.8932 77.2665Z" fill="url(#paint1_linear_80_299)"/>
<path d="M6.10352e-05 62.4645L37.8932 77.2665L37.5972 118.12L6.10352e-05 62.4645Z" fill="url(#paint2_linear_80_299)"/>
<g filter="url(#filter0_f_80_299)">
<path d="M8.00006 69L38.0001 80.7021L37.7657 113L8.00006 69Z" fill="url(#paint3_linear_80_299)"/>
</g>
<g filter="url(#filter1_f_80_299)">
<path d="M69 67.5L38 81.4362L38.2266 113L69 67.5Z" fill="url(#paint4_linear_80_299)"/>
</g>
<g filter="url(#filter2_f_80_299)">
<path d="M43.1667 82.2778L59.0001 78L43.1667 100L45.0667 88.3889L40.0001 89L43.1667 82.2778Z" fill="#BACAE0"/>
</g>
<g filter="url(#filter3_f_80_299)">
<path d="M36.8899 16.5V75.5L3.88983 60.5824L36.8899 16.5Z" fill="url(#paint5_linear_80_299)"/>
</g>
<defs>
<filter id="filter0_f_80_299" x="6.40006" y="67.4" width="33.2" height="47.2" filterUnits="userSpaceOnUse" color-interpolation-filters="sRGB">
<feFlood flood-opacity="0" result="BackgroundImageFix"/>
<feBlend mode="normal" in="SourceGraphic" in2="BackgroundImageFix" result="shape"/>
<feGaussianBlur stdDeviation="0.8" result="effect1_foregroundBlur_80_299"/>
</filter>
<filter id="filter1_f_80_299" x="37" y="66.5" width="33" height="47.5" filterUnits="userSpaceOnUse" color-interpolation-filters="sRGB">
<feFlood flood-opacity="0" result="BackgroundImageFix"/>
<feBlend mode="normal" in="SourceGraphic" in2="BackgroundImageFix" result="shape"/>
<feGaussianBlur stdDeviation="0.5" result="effect1_foregroundBlur_80_299"/>
</filter>
<filter id="filter2_f_80_299" x="36.0001" y="74" width="27" height="30" filterUnits="userSpaceOnUse" color-interpolation-filters="sRGB">
<feFlood flood-opacity="0" result="BackgroundImageFix"/>
<feBlend mode="normal" in="SourceGraphic" in2="BackgroundImageFix" result="shape"/>
<feGaussianBlur stdDeviation="2" result="effect1_foregroundBlur_80_299"/>
</filter>
<filter id="filter3_f_80_299" x="1.38983" y="14" width="38" height="64" filterUnits="userSpaceOnUse" color-interpolation-filters="sRGB">
<feFlood flood-opacity="0" result="BackgroundImageFix"/>
<feBlend mode="normal" in="SourceGraphic" in2="BackgroundImageFix" result="shape"/>
<feGaussianBlur stdDeviation="1.25" result="effect1_foregroundBlur_80_299"/>
</filter>
<linearGradient id="paint0_linear_80_299" x1="8.5" y1="35.204" x2="38" y2="36.204" gradientUnits="userSpaceOnUse">
<stop stop-color="#4761EC"/>
<stop offset="1" stop-color="#BACAE0"/>
</linearGradient>
<linearGradient id="paint1_linear_80_299" x1="56.0001" y1="96" x2="38.0001" y2="115" gradientUnits="userSpaceOnUse">
<stop stop-color="#BACAE0"/>
<stop offset="1" stop-color="#4761EC"/>
</linearGradient>
<linearGradient id="paint2_linear_80_299" x1="24.5001" y1="93" x2="42.0001" y2="79.5" gradientUnits="userSpaceOnUse">
<stop stop-color="#4761EC"/>
<stop offset="0.53" stop-color="#8499E6"/>
<stop offset="1" stop-color="#BACAE0"/>
</linearGradient>
<linearGradient id="paint3_linear_80_299" x1="5.22228" y1="69" x2="36.6561" y2="113.013" gradientUnits="userSpaceOnUse">
<stop offset="0.143981" stop-color="#FD8FFF"/>
<stop offset="0.259126" stop-color="#FFF6B7"/>
<stop offset="0.390304" stop-color="#3DF3FF"/>
<stop offset="0.533591" stop-color="#BACAE0"/>
<stop offset="0.654588" stop-color="#4761EC"/>
<stop offset="1" stop-color="#BACAE0"/>
</linearGradient>
<linearGradient id="paint4_linear_80_299" x1="69.6852" y1="70" x2="38.8584" y2="112.695" gradientUnits="userSpaceOnUse">
<stop offset="0.065" stop-color="#BACAE0"/>
<stop offset="0.195812" stop-color="#FFF6B7"/>
<stop offset="0.335111" stop-color="#FD8FFF"/>
<stop offset="0.476776" stop-color="#3DF3FF"/>
<stop offset="0.59276" stop-color="#4761EC"/>
<stop offset="0.816199" stop-color="#FD8FFF"/>
<stop offset="0.898121" stop-color="#3DF3FF"/>
<stop offset="1" stop-color="#BACAE0"/>
</linearGradient>
<linearGradient id="paint5_linear_80_299" x1="18.9465" y1="42.9259" x2="18.9465" y2="77.2665" gradientUnits="userSpaceOnUse">
<stop stop-color="#3DF3FF"/>
<stop offset="0.106805" stop-color="#FFF6B7"/>
<stop offset="0.31" stop-color="#FD8FFF"/>
<stop offset="0.501639" stop-color="#4936C5"/>
<stop offset="0.767373" stop-color="#BACAE0"/>
</linearGradient>
</defs>
</svg>
