<svg width="233" height="44" viewBox="0 0 233 44" fill="none" xmlns="http://www.w3.org/2000/svg">
<mask id="mask0_327_715" style="mask-type:alpha" maskUnits="userSpaceOnUse" x="0" y="0" width="233" height="45">
<path d="M9.94063 28.6271V20.1779H17.8563C18.7972 20.1779 19.6563 20.0018 20.4335 19.6498C21.2517 19.2586 21.9062 18.6914 22.3971 17.9482C22.888 17.1658 23.1334 16.2075 23.1334 15.0731C23.1334 13.9387 22.888 12.9999 22.3971 12.2567C21.9062 11.4743 21.2517 10.9071 20.4335 10.5551C19.6563 10.1639 18.7972 9.96832 17.8563 9.96832H9.94063V1.51905H20.2494C23.0721 1.51905 25.6084 2.0667 27.8583 3.16196C30.1492 4.21812 31.9491 5.76326 33.2581 7.79733C34.6081 9.7923 35.2831 12.2176 35.2831 15.0731C35.2831 17.8895 34.6081 20.3148 33.2581 22.3489C31.9491 24.3829 30.1492 25.9476 27.8583 27.0429C25.6084 28.0991 23.0721 28.6271 20.2494 28.6271H9.94063ZM0 43.296V1.51905H12.2724V43.296H0ZM49.6101 26.6322V18.535H57.0349C58.7123 18.535 59.9803 18.1438 60.8394 17.3614C61.7392 16.5791 62.1893 15.5425 62.1893 14.2516C62.1893 12.9608 61.7392 11.9242 60.8394 11.1418C59.9803 10.3595 58.7123 9.96832 57.0349 9.96832H49.6101V1.51905H58.9985C62.0258 1.51905 64.6845 2.04713 66.9755 3.10329C69.2665 4.15945 71.0662 5.62633 72.3754 7.50395C73.6846 9.38157 74.339 11.5721 74.339 14.0756C74.339 16.5791 73.664 18.7697 72.314 20.6473C71.0048 22.5249 69.164 23.9918 66.7915 25.0479C64.419 26.1041 61.6164 26.6322 58.3849 26.6322H49.6101ZM39.6695 43.296V1.51905H51.9419V43.296H39.6695ZM63.2325 43.296L51.3283 25.4587L62.3734 23.1703L77.1616 43.296H63.2325ZM80.2379 43.296V1.51905H92.5102V43.296H80.2379ZM113.047 44.0001C109.325 44.0001 106.073 43.4918 103.291 42.4746C100.55 41.4184 98.0136 39.7558 95.6819 37.4871L103.352 30.1527C104.948 31.5999 106.625 32.7147 108.384 33.4972C110.143 34.2403 112.025 34.612 114.029 34.612C115.706 34.612 116.974 34.3773 117.834 33.9079C118.693 33.3996 119.122 32.7147 119.122 31.8543C119.122 30.9939 118.754 30.2896 118.018 29.742C117.281 29.1552 116.299 28.6467 115.072 28.2164C113.886 27.747 112.556 27.2776 111.084 26.8082C109.652 26.3388 108.22 25.7716 106.788 25.1066C105.356 24.4416 104.027 23.6397 102.8 22.7009C101.613 21.723 100.652 20.5299 99.9159 19.1217C99.1795 17.6744 98.8113 15.9141 98.8113 13.8409C98.8113 11.1418 99.4863 8.81439 100.836 6.85852C102.186 4.90266 104.088 3.41624 106.543 2.39918C108.997 1.34302 111.881 0.814941 115.195 0.814941C118.468 0.814941 121.495 1.32345 124.277 2.3405C127.099 3.31841 129.431 4.72663 131.272 6.56514L123.54 13.8996C122.19 12.6478 120.84 11.7286 119.49 11.1418C118.14 10.516 116.668 10.203 115.072 10.203C113.804 10.203 112.781 10.3986 112.004 10.7898C111.268 11.1809 110.9 11.7677 110.9 12.55C110.9 13.3715 111.268 14.056 112.004 14.6037C112.74 15.1122 113.702 15.5816 114.888 16.0119C116.115 16.4422 117.445 16.892 118.877 17.3614C120.349 17.8308 121.801 18.398 123.233 19.063C124.665 19.6889 125.974 20.5103 127.161 21.5274C128.388 22.5053 129.37 23.7375 130.106 25.224C130.842 26.7104 131.21 28.5098 131.21 30.6221C131.21 34.8857 129.615 38.1912 126.424 40.5383C123.274 42.8463 118.815 44.0001 113.047 44.0001ZM136.326 43.296V1.51905H145.224L161.485 24.2852H157.619L173.819 1.51905H182.716V43.296H170.566V20.7646L172.346 21.234L163.448 33.4385H155.594L146.758 21.234L148.476 20.7646V43.296H136.326ZM186.706 43.296L203.335 1.51905H215.853L232.298 43.296H219.535L207.324 7.79733H211.742L199.224 43.296H186.706ZM197.506 36.255V27.1016H221.928V36.255H197.506Z" fill="black"/>
</mask>
<g mask="url(#mask0_327_715)">
<path d="M9.94063 28.6274V20.1782H17.8563C18.7972 20.1782 19.6563 20.0021 20.4335 19.6501C21.2517 19.2589 21.9062 18.6917 22.3971 17.9485C22.888 17.1661 23.1334 16.2078 23.1334 15.0734C23.1334 13.939 22.888 13.0002 22.3971 12.257C21.9062 11.4746 21.2517 10.9074 20.4335 10.5554C19.6563 10.1642 18.7972 9.96863 17.8563 9.96863H9.94063V1.51935H20.2494C23.0721 1.51935 25.6084 2.06701 27.8583 3.16227C30.1492 4.21843 31.9491 5.76357 33.2581 7.79763C34.6081 9.7926 35.2831 12.2179 35.2831 15.0734C35.2831 17.8898 34.6081 20.3151 33.2581 22.3492C31.9491 24.3832 30.1492 25.9479 27.8583 27.0432C25.6084 28.0994 23.0721 28.6274 20.2494 28.6274H9.94063ZM0 43.2963V1.51935H12.2724V43.2963H0ZM49.6101 26.6325V18.5353H57.0349C58.7123 18.5353 59.9803 18.1441 60.8394 17.3617C61.7392 16.5794 62.1893 15.5428 62.1893 14.2519C62.1893 12.9611 61.7392 11.9245 60.8394 11.1421C59.9803 10.3598 58.7123 9.96863 57.0349 9.96863H49.6101V1.51935H58.9985C62.0258 1.51935 64.6845 2.04743 66.9755 3.10359C69.2665 4.15975 71.0662 5.62664 72.3754 7.50426C73.6846 9.38187 74.339 11.5724 74.339 14.0759C74.339 16.5794 73.664 18.77 72.314 20.6476C71.0048 22.5252 69.164 23.9921 66.7915 25.0482C64.419 26.1044 61.6164 26.6325 58.3849 26.6325H49.6101ZM39.6695 43.2963V1.51935H51.9419V43.2963H39.6695ZM63.2325 43.2963L51.3283 25.459L62.3734 23.1706L77.1616 43.2963H63.2325ZM80.2379 43.2963V1.51935H92.5102V43.2963H80.2379ZM113.047 44.0004C109.325 44.0004 106.073 43.4921 103.291 42.4749C100.55 41.4187 98.0136 39.7561 95.6819 37.4874L103.352 30.153C104.948 31.6002 106.625 32.715 108.384 33.4975C110.143 34.2406 112.025 34.6123 114.029 34.6123C115.706 34.6123 116.974 34.3776 117.834 33.9082C118.693 33.3999 119.122 32.715 119.122 31.8546C119.122 30.9942 118.754 30.2899 118.018 29.7423C117.281 29.1555 116.299 28.647 115.072 28.2167C113.886 27.7473 112.556 27.2779 111.084 26.8085C109.652 26.3391 108.22 25.7719 106.788 25.1069C105.356 24.4419 104.027 23.64 102.8 22.7012C101.613 21.7233 100.652 20.5302 99.9159 19.122C99.1795 17.6747 98.8113 15.9144 98.8113 13.8412C98.8113 11.1421 99.4863 8.81469 100.836 6.85883C102.186 4.90296 104.088 3.41654 106.543 2.39949C108.997 1.34333 111.881 0.815247 115.195 0.815247C118.468 0.815247 121.495 1.32375 124.277 2.34081C127.099 3.31872 129.431 4.72693 131.272 6.56545L123.54 13.8999C122.19 12.6481 120.84 11.7289 119.49 11.1421C118.14 10.5163 116.668 10.2033 115.072 10.2033C113.804 10.2033 112.781 10.3989 112.004 10.7901C111.268 11.1812 110.9 11.768 110.9 12.5504C110.9 13.3718 111.268 14.0563 112.004 14.604C112.74 15.1125 113.702 15.5819 114.888 16.0122C116.115 16.4425 117.445 16.8923 118.877 17.3617C120.349 17.8312 121.801 18.3983 123.233 19.0633C124.665 19.6892 125.974 20.5106 127.161 21.5277C128.388 22.5056 129.37 23.7378 130.106 25.2243C130.842 26.7107 131.21 28.5101 131.21 30.6224C131.21 34.886 129.615 38.1916 126.424 40.5386C123.274 42.8466 118.815 44.0004 113.047 44.0004ZM136.326 43.2963V1.51935H145.224L161.485 24.2855H157.619L173.819 1.51935H182.716V43.2963H170.566V20.7649L172.346 21.2343L163.448 33.4388H155.594L146.758 21.2343L148.476 20.7649V43.2963H136.326ZM186.706 43.2963L203.335 1.51935H215.853L232.298 43.2963H219.535L207.324 7.79763H211.742L199.224 43.2963H186.706ZM197.506 36.2553V27.1019H221.928V36.2553H197.506Z" fill="#9BA5FF"/>
<path d="M-1.70312 -0.939758H16.7534L76.1977 43.9837H34.0114L-1.70312 -0.939758Z" fill="#8A61E6"/>
<path d="M24.1846 0.941711H32.5739L125.815 44.0313L108.557 43.9969L24.1846 0.941711Z" fill="#B6FF93"/>
<path d="M32.5732 0.941711L54.6252 1.40057L172.076 44.3091L125.815 44.0313L32.5732 0.941711Z" fill="#FFF193"/>
<path d="M54.626 1.401H91.539L240.629 44.2082L172.076 44.3096L54.626 1.401Z" fill="#FD8FFF"/>
<path d="M23.9445 0.665466H13.1582L75.7186 43.7553H108.557L23.9445 0.665466Z" fill="#97E0F8"/>
</g>
</svg>
